<?plantuml 1.2026.2beta3?><svg xmlns="http://www.w3.org/2000/svg" xmlns:xlink="http://www.w3.org/1999/xlink" contentStyleType="text/css" data-diagram-type="SEQUENCE" height="862px" preserveAspectRatio="none" style="width:1839px;height:862px;background:#FFFFFF;" version="1.1" viewBox="0 0 1839 862" width="1839px" zoomAndPan="magnify"><title>Cr&#233;ation Livraison</title><defs/><g><text fill="#000000" font-family="sans-serif" font-size="14" font-weight="bold" lengthAdjust="spacing" textLength="143.9854" x="843.5964" y="27.9951">Cr&#233;ation Livraison</text><rect fill="#DDDDDD" height="813.0234" style="stroke:#181818;stroke-width:0.5;" width="167.5288" x="156.5815" y="43.2969"/><text fill="#000000" font-family="sans-serif" font-size="13" font-weight="bold" lengthAdjust="spacing" textLength="161.5288" x="159.5815" y="55.3638">Event Bus (RabbitMQ)</text><rect fill="#DDDDDD" height="813.0234" style="stroke:#181818;stroke-width:0.5;" width="552.4409" x="373.4136" y="43.2969"/><text fill="#000000" font-family="sans-serif" font-size="13" font-weight="bold" lengthAdjust="spacing" textLength="160.7227" x="569.2727" y="55.3638">Microservice Mapping</text><rect fill="#DDDDDD" height="813.0234" style="stroke:#181818;stroke-width:0.5;" width="462.1758" x="927.8545" y="43.2969"/><text fill="#000000" font-family="sans-serif" font-size="13" font-weight="bold" lengthAdjust="spacing" textLength="164.1631" x="1076.8608" y="55.3638">Microservice Livraison</text><rect fill="#DDDDDD" height="813.0234" style="stroke:#181818;stroke-width:0.5;" width="416.7515" x="1392.0303" y="43.2969"/><text fill="#000000" font-family="sans-serif" font-size="13" font-weight="bold" lengthAdjust="spacing" textLength="166.7656" x="1517.0232" y="55.3638">Microservice Workflow</text><rect fill="none" height="147.3359" style="stroke:#000000;stroke-width:1.5;" width="767.6145" x="164.24" y="274.5547"/><rect fill="none" height="147.3359" style="stroke:#000000;stroke-width:1.5;" width="1231.7903" x="164.24" y="494.1563"/><rect fill="none" height="46.2656" style="stroke:#000000;stroke-width:1.5;" width="295.3467" x="1526.8315" y="713.7578"/><g class="participant-lifeline" data-entity-uid="part1" data-qualified-name="ERP" id="part1-lifeline"><g><title>ERP System</title><rect fill="#000000" fill-opacity="0.00000" height="650" width="8" x="45.8359" y="127.0234"/><line style="stroke:#181818;stroke-width:0.5;stroke-dasharray:5,5;" x1="49" x2="49" y1="127.0234" y2="777.0234"/></g></g><g class="participant-lifeline" data-entity-uid="part2" data-qualified-name="Broker" id="part2-lifeline"><g><title>Message Broker</title><rect fill="#000000" fill-opacity="0.00000" height="650" width="8" x="236.3459" y="127.0234"/><line style="stroke:#181818;stroke-width:0.5;stroke-dasharray:5,5;" x1="240.24" x2="240.24" y1="127.0234" y2="777.0234"/></g></g><g class="participant-lifeline" data-entity-uid="part3" data-qualified-name="MappingListener" id="part3-lifeline"><g><title>Event Listener</title><rect fill="#000000" fill-opacity="0.00000" height="650" width="8" x="426.856" y="127.0234"/><line style="stroke:#181818;stroke-width:0.5;stroke-dasharray:5,5;" x1="430.4136" x2="430.4136" y1="127.0234" y2="777.0234"/></g></g><g class="participant-lifeline" data-entity-uid="part4" data-qualified-name="MappingService" id="part4-lifeline"><g><title>MappingService</title><rect fill="#000000" fill-opacity="0.00000" height="650" width="8" x="604.666" y="127.0234"/><line style="stroke:#181818;stroke-width:0.5;stroke-dasharray:5,5;" x1="607.7549" x2="607.7549" y1="127.0234" y2="777.0234"/></g></g><g class="participant-lifeline" data-entity-uid="part5" data-qualified-name="CanonicalOrder" id="part5-lifeline"><g><title>Canonical Order</title><rect fill="#000000" fill-opacity="0.00000" height="650" width="8" x="733.1787" y="127.0234"/><line style="stroke:#181818;stroke-width:0.5;stroke-dasharray:5,5;" x1="736.5771" x2="736.5771" y1="127.0234" y2="777.0234"/></g></g><g class="participant-lifeline" data-entity-uid="part6" data-qualified-name="MappingPublisher" id="part6-lifeline"><g><title>Event Publisher</title><rect fill="#000000" fill-opacity="0.00000" height="650" width="8" x="860.3174" y="127.0234"/><line style="stroke:#181818;stroke-width:0.5;stroke-dasharray:5,5;" x1="863.7803" x2="863.7803" y1="127.0234" y2="777.0234"/></g></g><g class="participant-lifeline" data-entity-uid="part7" data-qualified-name="DeliveryListener" id="part7-lifeline"><g><title>Event Listener</title><rect fill="#000000" fill-opacity="0.00000" height="650" width="8" x="981.2969" y="127.0234"/><line style="stroke:#181818;stroke-width:0.5;stroke-dasharray:5,5;" x1="984.8545" x2="984.8545" y1="127.0234" y2="777.0234"/></g></g><g class="participant-lifeline" data-entity-uid="part8" data-qualified-name="DeliveryController" id="part8-lifeline"><g><title>DeliveryController</title><rect fill="#000000" fill-opacity="0.00000" height="650" width="8" x="1111.3818" y="127.0234"/><line style="stroke:#181818;stroke-width:0.5;stroke-dasharray:5,5;" x1="1114.7393" x2="1114.7393" y1="127.0234" y2="777.0234"/></g></g><g class="participant-lifeline" data-entity-uid="part9" data-qualified-name="Delivery" id="part9-lifeline"><g><title>Livraison</title><rect fill="#000000" fill-opacity="0.00000" height="650" width="8" x="1222.4902" y="127.0234"/><line style="stroke:#181818;stroke-width:0.5;stroke-dasharray:5,5;" x1="1226.0244" x2="1226.0244" y1="127.0234" y2="777.0234"/></g></g><g class="participant-lifeline" data-entity-uid="part10" data-qualified-name="DeliveryPublisher" id="part10-lifeline"><g><title>Event Publisher</title><rect fill="#000000" fill-opacity="0.00000" height="650" width="8" x="1324.4932" y="127.0234"/><line style="stroke:#181818;stroke-width:0.5;stroke-dasharray:5,5;" x1="1327.9561" x2="1327.9561" y1="127.0234" y2="777.0234"/></g></g><g class="participant-lifeline" data-entity-uid="part11" data-qualified-name="WorkflowListener" id="part11-lifeline"><g><title>Event Listener</title><rect fill="#000000" fill-opacity="0.00000" height="650" width="8" x="1445.4727" y="127.0234"/><line style="stroke:#181818;stroke-width:0.5;stroke-dasharray:5,5;" x1="1449.0303" x2="1449.0303" y1="127.0234" y2="777.0234"/></g></g><g class="participant-lifeline" data-entity-uid="part12" data-qualified-name="WorkflowService" id="part12-lifeline"><g><title>WorkflowService</title><rect fill="#000000" fill-opacity="0.00000" height="650" width="8" x="1594.2549" y="127.0234"/><line style="stroke:#181818;stroke-width:0.5;stroke-dasharray:5,5;" x1="1597.8315" x2="1597.8315" y1="127.0234" y2="777.0234"/></g></g><g class="participant-lifeline" data-entity-uid="part13" data-qualified-name="WorkflowInstance" id="part13-lifeline"><g><title>Workflow Instance</title><rect fill="#000000" fill-opacity="0.00000" height="650" width="8" x="1733.23" y="127.0234"/><line style="stroke:#181818;stroke-width:0.5;stroke-dasharray:5,5;" x1="1736.6782" x2="1736.6782" y1="127.0234" y2="777.0234"/></g></g><g class="participant participant-head" data-entity-uid="part1" data-qualified-name="ERP" id="part1-head"><text fill="#000000" font-family="sans-serif" font-size="14" lengthAdjust="spacing" textLength="83.6719" x="5" y="123.7217">ERP System</text><ellipse cx="49.8359" cy="59.2266" fill="#E2E2F0" rx="8" ry="8" style="stroke:#181818;stroke-width:0.5;"/><path d="M49.8359,67.2266 L49.8359,94.2266 M36.8359,75.2266 L62.8359,75.2266 M49.8359,94.2266 L36.8359,109.2266 M49.8359,94.2266 L62.8359,109.2266" fill="none" style="stroke:#181818;stroke-width:0.5;"/></g><g class="participant participant-tail" data-entity-uid="part1" data-qualified-name="ERP" id="part1-tail"><text fill="#000000" font-family="sans-serif" font-size="14" lengthAdjust="spacing" textLength="83.6719" x="5" y="789.0186">ERP System</text><ellipse cx="49.8359" cy="800.8203" fill="#E2E2F0" rx="8" ry="8" style="stroke:#181818;stroke-width:0.5;"/><path d="M49.8359,808.8203 L49.8359,835.8203 M36.8359,816.8203 L62.8359,816.8203 M49.8359,835.8203 L36.8359,850.8203 M49.8359,835.8203 L62.8359,850.8203" fill="none" style="stroke:#181818;stroke-width:0.5;"/></g><g class="participant participant-head" data-entity-uid="part2" data-qualified-name="Broker" id="part2-head"><path d="M179.24,100.7266 L301.4519,100.7266 C306.4519,100.7266 306.4519,113.875 306.4519,113.875 C306.4519,113.875 306.4519,127.0234 301.4519,127.0234 L179.24,127.0234 C174.24,127.0234 174.24,113.875 174.24,113.875 C174.24,113.875 174.24,100.7266 179.24,100.7266" fill="#E2E2F0" style="stroke:#181818;stroke-width:0.5;"/><path d="M301.4519,100.7266 C296.4519,100.7266 296.4519,113.875 296.4519,113.875 C296.4519,127.0234 301.4519,127.0234 301.4519,127.0234" fill="none" style="stroke:#181818;stroke-width:0.5;"/><text fill="#000000" font-family="sans-serif" font-size="14" lengthAdjust="spacing" textLength="112.2119" x="179.24" y="118.7217">Message Broker</text></g><g class="participant participant-tail" data-entity-uid="part2" data-qualified-name="Broker" id="part2-tail"><path d="M179.24,776.0234 L301.4519,776.0234 C306.4519,776.0234 306.4519,789.1719 306.4519,789.1719 C306.4519,789.1719 306.4519,802.3203 301.4519,802.3203 L179.24,802.3203 C174.24,802.3203 174.24,789.1719 174.24,789.1719 C174.24,789.1719 174.24,776.0234 179.24,776.0234" fill="#E2E2F0" style="stroke:#181818;stroke-width:0.5;"/><path d="M301.4519,776.0234 C296.4519,776.0234 296.4519,789.1719 296.4519,789.1719 C296.4519,802.3203 301.4519,802.3203 301.4519,802.3203" fill="none" style="stroke:#181818;stroke-width:0.5;"/><text fill="#000000" font-family="sans-serif" font-size="14" lengthAdjust="spacing" textLength="112.2119" x="179.24" y="794.0186">Message Broker</text></g><g class="participant participant-head" data-entity-uid="part3" data-qualified-name="MappingListener" id="part3-head"><text fill="#000000" font-family="sans-serif" font-size="14" lengthAdjust="spacing" textLength="100.8848" x="377.4136" y="107.4248">Event Listener</text><text fill="#000000" font-family="sans-serif" font-size="14" lengthAdjust="spacing" textLength="79.5703" x="388.0708" y="123.7217">&#171;interface&#187;</text><path d="M410.356,66.4297 L410.356,90.4297 M410.356,78.4297 L427.356,78.4297" fill="none" style="stroke:#181818;stroke-width:0.5;"/><ellipse cx="439.356" cy="78.4297" fill="#E2E2F0" rx="12" ry="12" style="stroke:#181818;stroke-width:0.5;"/></g><g class="participant participant-tail" data-entity-uid="part3" data-qualified-name="MappingListener" id="part3-tail"><text fill="#000000" font-family="sans-serif" font-size="14" lengthAdjust="spacing" textLength="100.8848" x="377.4136" y="789.0186">Event Listener</text><text fill="#000000" font-family="sans-serif" font-size="14" lengthAdjust="spacing" textLength="79.5703" x="388.0708" y="805.3154">&#171;interface&#187;</text><path d="M410.356,812.6172 L410.356,836.6172 M410.356,824.6172 L427.356,824.6172" fill="none" style="stroke:#181818;stroke-width:0.5;"/><ellipse cx="439.356" cy="824.6172" fill="#E2E2F0" rx="12" ry="12" style="stroke:#181818;stroke-width:0.5;"/></g><g class="participant participant-head" data-entity-uid="part4" data-qualified-name="MappingService" id="part4-head"><text fill="#000000" font-family="sans-serif" font-size="14" lengthAdjust="spacing" textLength="111.8223" x="549.7549" y="107.4248">MappingService</text><text fill="#000000" font-family="sans-serif" font-size="14" lengthAdjust="spacing" textLength="84.2256" x="563.5532" y="123.7217">&#171;controller&#187;</text><ellipse cx="608.666" cy="78.4297" fill="#E2E2F0" rx="12" ry="12" style="stroke:#181818;stroke-width:0.5;"/><polygon fill="#181818" points="604.666,66.4297,610.666,61.4297,608.666,66.4297,610.666,71.4297,604.666,66.4297" style="stroke:#181818;stroke-width:1;"/></g><g class="participant participant-tail" data-entity-uid="part4" data-qualified-name="MappingService" id="part4-tail"><text fill="#000000" font-family="sans-serif" font-size="14" lengthAdjust="spacing" textLength="111.8223" x="549.7549" y="789.0186">MappingService</text><text fill="#000000" font-family="sans-serif" font-size="14" lengthAdjust="spacing" textLength="84.2256" x="563.5532" y="805.3154">&#171;controller&#187;</text><ellipse cx="608.666" cy="824.6172" fill="#E2E2F0" rx="12" ry="12" style="stroke:#181818;stroke-width:0.5;"/><polygon fill="#181818" points="604.666,812.6172,610.666,807.6172,608.666,812.6172,610.666,817.6172,604.666,812.6172" style="stroke:#181818;stroke-width:1;"/></g><g class="participant participant-head" data-entity-uid="part5" data-qualified-name="CanonicalOrder" id="part5-head"><text fill="#000000" font-family="sans-serif" font-size="14" lengthAdjust="spacing" textLength="113.2031" x="677.5771" y="107.4248">Canonical Order</text><text fill="#000000" font-family="sans-serif" font-size="14" lengthAdjust="spacing" textLength="57.7705" x="705.2935" y="123.7217">&#171;entity&#187;</text><ellipse cx="737.1787" cy="78.4297" fill="#E2E2F0" rx="12" ry="12" style="stroke:#181818;stroke-width:0.5;"/><line style="stroke:#181818;stroke-width:0.5;" x1="725.1787" x2="749.1787" y1="92.4297" y2="92.4297"/></g><g class="participant participant-tail" data-entity-uid="part5" data-qualified-name="CanonicalOrder" id="part5-tail"><text fill="#000000" font-family="sans-serif" font-size="14" lengthAdjust="spacing" textLength="113.2031" x="677.5771" y="789.0186">Canonical Order</text><text fill="#000000" font-family="sans-serif" font-size="14" lengthAdjust="spacing" textLength="57.7705" x="705.2935" y="805.3154">&#171;entity&#187;</text><ellipse cx="737.1787" cy="824.6172" fill="#E2E2F0" rx="12" ry="12" style="stroke:#181818;stroke-width:0.5;"/><line style="stroke:#181818;stroke-width:0.5;" x1="725.1787" x2="749.1787" y1="838.6172" y2="838.6172"/></g><g class="participant participant-head" data-entity-uid="part6" data-qualified-name="MappingPublisher" id="part6-head"><text fill="#000000" font-family="sans-serif" font-size="14" lengthAdjust="spacing" textLength="109.0742" x="806.7803" y="107.4248">Event Publisher</text><text fill="#000000" font-family="sans-serif" font-size="14" lengthAdjust="spacing" textLength="79.5703" x="821.5322" y="123.7217">&#171;interface&#187;</text><path d="M843.8174,66.4297 L843.8174,90.4297 M843.8174,78.4297 L860.8174,78.4297" fill="none" style="stroke:#181818;stroke-width:0.5;"/><ellipse cx="872.8174" cy="78.4297" fill="#E2E2F0" rx="12" ry="12" style="stroke:#181818;stroke-width:0.5;"/></g><g class="participant participant-tail" data-entity-uid="part6" data-qualified-name="MappingPublisher" id="part6-tail"><text fill="#000000" font-family="sans-serif" font-size="14" lengthAdjust="spacing" textLength="109.0742" x="806.7803" y="789.0186">Event Publisher</text><text fill="#000000" font-family="sans-serif" font-size="14" lengthAdjust="spacing" textLength="79.5703" x="821.5322" y="805.3154">&#171;interface&#187;</text><path d="M843.8174,812.6172 L843.8174,836.6172 M843.8174,824.6172 L860.8174,824.6172" fill="none" style="stroke:#181818;stroke-width:0.5;"/><ellipse cx="872.8174" cy="824.6172" fill="#E2E2F0" rx="12" ry="12" style="stroke:#181818;stroke-width:0.5;"/></g><g class="participant participant-head" data-entity-uid="part7" data-qualified-name="DeliveryListener" id="part7-head"><text fill="#000000" font-family="sans-serif" font-size="14" lengthAdjust="spacing" textLength="100.8848" x="931.8545" y="107.4248">Event Listener</text><text fill="#000000" font-family="sans-serif" font-size="14" lengthAdjust="spacing" textLength="79.5703" x="942.5117" y="123.7217">&#171;interface&#187;</text><path d="M964.7969,66.4297 L964.7969,90.4297 M964.7969,78.4297 L981.7969,78.4297" fill="none" style="stroke:#181818;stroke-width:0.5;"/><ellipse cx="993.7969" cy="78.4297" fill="#E2E2F0" rx="12" ry="12" style="stroke:#181818;stroke-width:0.5;"/></g><g class="participant participant-tail" data-entity-uid="part7" data-qualified-name="DeliveryListener" id="part7-tail"><text fill="#000000" font-family="sans-serif" font-size="14" lengthAdjust="spacing" textLength="100.8848" x="931.8545" y="789.0186">Event Listener</text><text fill="#000000" font-family="sans-serif" font-size="14" lengthAdjust="spacing" textLength="79.5703" x="942.5117" y="805.3154">&#171;interface&#187;</text><path d="M964.7969,812.6172 L964.7969,836.6172 M964.7969,824.6172 L981.7969,824.6172" fill="none" style="stroke:#181818;stroke-width:0.5;"/><ellipse cx="993.7969" cy="824.6172" fill="#E2E2F0" rx="12" ry="12" style="stroke:#181818;stroke-width:0.5;"/></g><g class="participant participant-head" data-entity-uid="part8" data-qualified-name="DeliveryController" id="part8-head"><text fill="#000000" font-family="sans-serif" font-size="14" lengthAdjust="spacing" textLength="127.2852" x="1048.7393" y="107.4248">DeliveryController</text><text fill="#000000" font-family="sans-serif" font-size="14" lengthAdjust="spacing" textLength="84.2256" x="1070.269" y="123.7217">&#171;controller&#187;</text><ellipse cx="1115.3818" cy="78.4297" fill="#E2E2F0" rx="12" ry="12" style="stroke:#181818;stroke-width:0.5;"/><polygon fill="#181818" points="1111.3818,66.4297,1117.3818,61.4297,1115.3818,66.4297,1117.3818,71.4297,1111.3818,66.4297" style="stroke:#181818;stroke-width:1;"/></g><g class="participant participant-tail" data-entity-uid="part8" data-qualified-name="DeliveryController" id="part8-tail"><text fill="#000000" font-family="sans-serif" font-size="14" lengthAdjust="spacing" textLength="127.2852" x="1048.7393" y="789.0186">DeliveryController</text><text fill="#000000" font-family="sans-serif" font-size="14" lengthAdjust="spacing" textLength="84.2256" x="1070.269" y="805.3154">&#171;controller&#187;</text><ellipse cx="1115.3818" cy="824.6172" fill="#E2E2F0" rx="12" ry="12" style="stroke:#181818;stroke-width:0.5;"/><polygon fill="#181818" points="1111.3818,812.6172,1117.3818,807.6172,1115.3818,812.6172,1117.3818,817.6172,1111.3818,812.6172" style="stroke:#181818;stroke-width:1;"/></g><g class="participant participant-head" data-entity-uid="part9" data-qualified-name="Delivery" id="part9-head"><text fill="#000000" font-family="sans-serif" font-size="14" lengthAdjust="spacing" textLength="62.9316" x="1192.0244" y="107.4248">Livraison</text><text fill="#000000" font-family="sans-serif" font-size="14" lengthAdjust="spacing" textLength="57.7705" x="1194.605" y="123.7217">&#171;entity&#187;</text><ellipse cx="1226.4902" cy="78.4297" fill="#E2E2F0" rx="12" ry="12" style="stroke:#181818;stroke-width:0.5;"/><line style="stroke:#181818;stroke-width:0.5;" x1="1214.4902" x2="1238.4902" y1="92.4297" y2="92.4297"/></g><g class="participant participant-tail" data-entity-uid="part9" data-qualified-name="Delivery" id="part9-tail"><text fill="#000000" font-family="sans-serif" font-size="14" lengthAdjust="spacing" textLength="62.9316" x="1192.0244" y="789.0186">Livraison</text><text fill="#000000" font-family="sans-serif" font-size="14" lengthAdjust="spacing" textLength="57.7705" x="1194.605" y="805.3154">&#171;entity&#187;</text><ellipse cx="1226.4902" cy="824.6172" fill="#E2E2F0" rx="12" ry="12" style="stroke:#181818;stroke-width:0.5;"/><line style="stroke:#181818;stroke-width:0.5;" x1="1214.4902" x2="1238.4902" y1="838.6172" y2="838.6172"/></g><g class="participant participant-head" data-entity-uid="part10" data-qualified-name="DeliveryPublisher" id="part10-head"><text fill="#000000" font-family="sans-serif" font-size="14" lengthAdjust="spacing" textLength="109.0742" x="1270.9561" y="107.4248">Event Publisher</text><text fill="#000000" font-family="sans-serif" font-size="14" lengthAdjust="spacing" textLength="79.5703" x="1285.708" y="123.7217">&#171;interface&#187;</text><path d="M1307.9932,66.4297 L1307.9932,90.4297 M1307.9932,78.4297 L1324.9932,78.4297" fill="none" style="stroke:#181818;stroke-width:0.5;"/><ellipse cx="1336.9932" cy="78.4297" fill="#E2E2F0" rx="12" ry="12" style="stroke:#181818;stroke-width:0.5;"/></g><g class="participant participant-tail" data-entity-uid="part10" data-qualified-name="DeliveryPublisher" id="part10-tail"><text fill="#000000" font-family="sans-serif" font-size="14" lengthAdjust="spacing" textLength="109.0742" x="1270.9561" y="789.0186">Event Publisher</text><text fill="#000000" font-family="sans-serif" font-size="14" lengthAdjust="spacing" textLength="79.5703" x="1285.708" y="805.3154">&#171;interface&#187;</text><path d="M1307.9932,812.6172 L1307.9932,836.6172 M1307.9932,824.6172 L1324.9932,824.6172" fill="none" style="stroke:#181818;stroke-width:0.5;"/><ellipse cx="1336.9932" cy="824.6172" fill="#E2E2F0" rx="12" ry="12" style="stroke:#181818;stroke-width:0.5;"/></g><g class="participant participant-head" data-entity-uid="part11" data-qualified-name="WorkflowListener" id="part11-head"><text fill="#000000" font-family="sans-serif" font-size="14" lengthAdjust="spacing" textLength="100.8848" x="1396.0303" y="107.4248">Event Listener</text><text fill="#000000" font-family="sans-serif" font-size="14" lengthAdjust="spacing" textLength="79.5703" x="1406.6875" y="123.7217">&#171;interface&#187;</text><path d="M1428.9727,66.4297 L1428.9727,90.4297 M1428.9727,78.4297 L1445.9727,78.4297" fill="none" style="stroke:#181818;stroke-width:0.5;"/><ellipse cx="1457.9727" cy="78.4297" fill="#E2E2F0" rx="12" ry="12" style="stroke:#181818;stroke-width:0.5;"/></g><g class="participant participant-tail" data-entity-uid="part11" data-qualified-name="WorkflowListener" id="part11-tail"><text fill="#000000" font-family="sans-serif" font-size="14" lengthAdjust="spacing" textLength="100.8848" x="1396.0303" y="789.0186">Event Listener</text><text fill="#000000" font-family="sans-serif" font-size="14" lengthAdjust="spacing" textLength="79.5703" x="1406.6875" y="805.3154">&#171;interface&#187;</text><path d="M1428.9727,812.6172 L1428.9727,836.6172 M1428.9727,824.6172 L1445.9727,824.6172" fill="none" style="stroke:#181818;stroke-width:0.5;"/><ellipse cx="1457.9727" cy="824.6172" fill="#E2E2F0" rx="12" ry="12" style="stroke:#181818;stroke-width:0.5;"/></g><g class="participant participant-head" data-entity-uid="part12" data-qualified-name="WorkflowService" id="part12-head"><text fill="#000000" font-family="sans-serif" font-size="14" lengthAdjust="spacing" textLength="116.8467" x="1536.8315" y="107.4248">WorkflowService</text><text fill="#000000" font-family="sans-serif" font-size="14" lengthAdjust="spacing" textLength="84.2256" x="1553.1421" y="123.7217">&#171;controller&#187;</text><ellipse cx="1598.2549" cy="78.4297" fill="#E2E2F0" rx="12" ry="12" style="stroke:#181818;stroke-width:0.5;"/><polygon fill="#181818" points="1594.2549,66.4297,1600.2549,61.4297,1598.2549,66.4297,1600.2549,71.4297,1594.2549,66.4297" style="stroke:#181818;stroke-width:1;"/></g><g class="participant participant-tail" data-entity-uid="part12" data-qualified-name="WorkflowService" id="part12-tail"><text fill="#000000" font-family="sans-serif" font-size="14" lengthAdjust="spacing" textLength="116.8467" x="1536.8315" y="789.0186">WorkflowService</text><text fill="#000000" font-family="sans-serif" font-size="14" lengthAdjust="spacing" textLength="84.2256" x="1553.1421" y="805.3154">&#171;controller&#187;</text><ellipse cx="1598.2549" cy="824.6172" fill="#E2E2F0" rx="12" ry="12" style="stroke:#181818;stroke-width:0.5;"/><polygon fill="#181818" points="1594.2549,812.6172,1600.2549,807.6172,1598.2549,812.6172,1600.2549,817.6172,1594.2549,812.6172" style="stroke:#181818;stroke-width:1;"/></g><g class="participant participant-head" data-entity-uid="part13" data-qualified-name="WorkflowInstance" id="part13-head"><text fill="#000000" font-family="sans-serif" font-size="14" lengthAdjust="spacing" textLength="129.1035" x="1669.6782" y="107.4248">Workflow Instance</text><text fill="#000000" font-family="sans-serif" font-size="14" lengthAdjust="spacing" textLength="57.7705" x="1705.3447" y="123.7217">&#171;entity&#187;</text><ellipse cx="1737.23" cy="78.4297" fill="#E2E2F0" rx="12" ry="12" style="stroke:#181818;stroke-width:0.5;"/><line style="stroke:#181818;stroke-width:0.5;" x1="1725.23" x2="1749.23" y1="92.4297" y2="92.4297"/></g><g class="participant participant-tail" data-entity-uid="part13" data-qualified-name="WorkflowInstance" id="part13-tail"><text fill="#000000" font-family="sans-serif" font-size="14" lengthAdjust="spacing" textLength="129.1035" x="1669.6782" y="789.0186">Workflow Instance</text><text fill="#000000" font-family="sans-serif" font-size="14" lengthAdjust="spacing" textLength="57.7705" x="1705.3447" y="805.3154">&#171;entity&#187;</text><ellipse cx="1737.23" cy="824.6172" fill="#E2E2F0" rx="12" ry="12" style="stroke:#181818;stroke-width:0.5;"/><line style="stroke:#181818;stroke-width:0.5;" x1="1725.23" x2="1749.23" y1="838.6172" y2="838.6172"/></g><rect fill="#EEEEEE" height="3" style="stroke:#EEEEEE;stroke-width:1;" width="1832.1782" x="0" y="157.5898"/><line style="stroke:#000000;stroke-width:1;" x1="0" x2="1832.1782" y1="157.5898" y2="157.5898"/><line style="stroke:#000000;stroke-width:1;" x1="0" x2="1832.1782" y1="160.5898" y2="160.5898"/><rect fill="#EEEEEE" height="23.1328" style="stroke:#000000;stroke-width:2;" width="92.3872" x="869.8955" y="147.0234"/><text fill="#000000" font-family="sans-serif" font-size="13" font-weight="bold" lengthAdjust="spacing" textLength="73.8613" x="875.8955" y="163.0903">Processus</text><g class="message" data-entity-1="part1" data-entity-2="part2" id="msg1"><polygon fill="#181818" points="228.3459,197.2891,238.3459,201.2891,228.3459,205.2891,232.3459,201.2891" style="stroke:#181818;stroke-width:1;"/><line style="stroke:#181818;stroke-width:1;" x1="49.8359" x2="234.3459" y1="201.2891" y2="201.2891"/><text fill="#000000" font-family="sans-serif" font-size="13" lengthAdjust="spacing" textLength="152.8516" x="56.8359" y="196.2231">OrderReadyForDelivery</text></g><g class="message" data-entity-1="part2" data-entity-2="part3" id="msg2"><polygon fill="#181818" points="418.856,226.4219,428.856,230.4219,418.856,234.4219,422.856,230.4219" style="stroke:#181818;stroke-width:1;"/><line style="stroke:#181818;stroke-width:1;" x1="240.3459" x2="424.856" y1="230.4219" y2="230.4219"/><text fill="#000000" font-family="sans-serif" font-size="13" lengthAdjust="spacing" textLength="152.8516" x="247.3459" y="225.356">OrderReadyForDelivery</text></g><g class="message" data-entity-1="part3" data-entity-2="part4" id="msg3"><polygon fill="#181818" points="596.666,255.5547,606.666,259.5547,596.666,263.5547,600.666,259.5547" style="stroke:#181818;stroke-width:1;"/><line style="stroke:#181818;stroke-width:1;" x1="430.856" x2="602.666" y1="259.5547" y2="259.5547"/><text fill="#000000" font-family="sans-serif" font-size="13" lengthAdjust="spacing" textLength="153.8101" x="437.856" y="254.4888">transformToCanonical()</text></g><path d="M164.24,274.5547 L228.6829,274.5547 L228.6829,281.6875 L218.6829,291.6875 L164.24,291.6875 L164.24,274.5547" fill="#EEEEEE" style="stroke:#000000;stroke-width:1.5;"/><rect fill="none" height="147.3359" style="stroke:#000000;stroke-width:1.5;" width="767.6145" x="164.24" y="274.5547"/><text fill="#000000" font-family="sans-serif" font-size="13" font-weight="bold" lengthAdjust="spacing" textLength="19.4429" x="179.24" y="287.6216">alt</text><text fill="#000000" font-family="sans-serif" font-size="11" font-weight="bold" lengthAdjust="spacing" textLength="139.5947" x="243.6829" y="286.7651">[Donn&#233;es ERP valides]</text><g class="message" data-entity-1="part4" data-entity-2="part5" id="msg4"><polygon fill="#181818" points="725.1787,308.8203,735.1787,312.8203,725.1787,316.8203,729.1787,312.8203" style="stroke:#181818;stroke-width:1;"/><line style="stroke:#181818;stroke-width:1;" x1="608.666" x2="731.1787" y1="312.8203" y2="312.8203"/><text fill="#000000" font-family="sans-serif" font-size="13" lengthAdjust="spacing" textLength="51.6953" x="615.666" y="307.7544">create()</text></g><g class="message" data-entity-1="part4" data-entity-2="part6" id="msg5"><polygon fill="#181818" points="852.3174,337.9531,862.3174,341.9531,852.3174,345.9531,856.3174,341.9531" style="stroke:#181818;stroke-width:1;"/><line style="stroke:#181818;stroke-width:1;" x1="608.666" x2="858.3174" y1="341.9531" y2="341.9531"/><text fill="#000000" font-family="sans-serif" font-size="13" lengthAdjust="spacing" textLength="152.7183" x="615.666" y="336.8872">CanonicalOrderCreated</text></g><g class="message" data-entity-1="part6" data-entity-2="part2" id="msg6"><polygon fill="#181818" points="251.3459,351.9531,241.3459,355.9531,251.3459,359.9531,247.3459,355.9531" style="stroke:#181818;stroke-width:1;"/><line style="stroke:#181818;stroke-width:1;" x1="245.3459" x2="863.3174" y1="355.9531" y2="355.9531"/></g><line style="stroke:#000000;stroke-width:1;stroke-dasharray:2,2;" x1="164.24" x2="931.8545" y1="364.9531" y2="364.9531"/><text fill="#000000" font-family="sans-serif" font-size="11" font-weight="bold" lengthAdjust="spacing" textLength="123.3203" x="169.24" y="375.1636">[Donn&#233;es invalides]</text><g class="message" data-entity-1="part4" data-entity-2="part6" id="msg7"><polygon fill="#181818" points="852.3174,395.8906,862.3174,399.8906,852.3174,403.8906,856.3174,399.8906" style="stroke:#181818;stroke-width:1;"/><line style="stroke:#181818;stroke-width:1;" x1="608.666" x2="858.3174" y1="399.8906" y2="399.8906"/><text fill="#000000" font-family="sans-serif" font-size="13" lengthAdjust="spacing" textLength="112.9248" x="615.666" y="394.8247">MappingRejected</text></g><g class="message" data-entity-1="part6" data-entity-2="part2" id="msg8"><polygon fill="#181818" points="251.3459,409.8906,241.3459,413.8906,251.3459,417.8906,247.3459,413.8906" style="stroke:#181818;stroke-width:1;"/><line style="stroke:#181818;stroke-width:1;" x1="245.3459" x2="863.3174" y1="413.8906" y2="413.8906"/></g><g class="message" data-entity-1="part2" data-entity-2="part7" id="msg9"><polygon fill="#181818" points="973.2969,446.0234,983.2969,450.0234,973.2969,454.0234,977.2969,450.0234" style="stroke:#181818;stroke-width:1;"/><line style="stroke:#181818;stroke-width:1;" x1="240.3459" x2="979.2969" y1="450.0234" y2="450.0234"/><text fill="#000000" font-family="sans-serif" font-size="13" lengthAdjust="spacing" textLength="152.7183" x="247.3459" y="444.9575">CanonicalOrderCreated</text></g><g class="message" data-entity-1="part7" data-entity-2="part8" id="msg10"><polygon fill="#181818" points="1103.3818,475.1563,1113.3818,479.1563,1103.3818,483.1563,1107.3818,479.1563" style="stroke:#181818;stroke-width:1;"/><line style="stroke:#181818;stroke-width:1;" x1="985.2969" x2="1109.3818" y1="479.1563" y2="479.1563"/><text fill="#000000" font-family="sans-serif" font-size="13" lengthAdjust="spacing" textLength="105.6567" x="992.2969" y="474.0903">createDelivery()</text></g><path d="M164.24,494.1563 L228.6829,494.1563 L228.6829,501.2891 L218.6829,511.2891 L164.24,511.2891 L164.24,494.1563" fill="#EEEEEE" style="stroke:#000000;stroke-width:1.5;"/><rect fill="none" height="147.3359" style="stroke:#000000;stroke-width:1.5;" width="1231.7903" x="164.24" y="494.1563"/><text fill="#000000" font-family="sans-serif" font-size="13" font-weight="bold" lengthAdjust="spacing" textLength="19.4429" x="179.24" y="507.2231">alt</text><text fill="#000000" font-family="sans-serif" font-size="11" font-weight="bold" lengthAdjust="spacing" textLength="107.8569" x="243.6829" y="506.3667">[Livraison valide]</text><g class="message" data-entity-1="part8" data-entity-2="part9" id="msg11"><polygon fill="#181818" points="1214.4902,528.4219,1224.4902,532.4219,1214.4902,536.4219,1218.4902,532.4219" style="stroke:#181818;stroke-width:1;"/><line style="stroke:#181818;stroke-width:1;" x1="1115.3818" x2="1220.4902" y1="532.4219" y2="532.4219"/><text fill="#000000" font-family="sans-serif" font-size="13" lengthAdjust="spacing" textLength="51.6953" x="1122.3818" y="527.356">create()</text></g><g class="message" data-entity-1="part8" data-entity-2="part10" id="msg12"><polygon fill="#181818" points="1316.4932,557.5547,1326.4932,561.5547,1316.4932,565.5547,1320.4932,561.5547" style="stroke:#181818;stroke-width:1;"/><line style="stroke:#181818;stroke-width:1;" x1="1115.3818" x2="1322.4932" y1="561.5547" y2="561.5547"/><text fill="#000000" font-family="sans-serif" font-size="13" lengthAdjust="spacing" textLength="105.6948" x="1122.3818" y="556.4888">DeliveryCreated</text></g><g class="message" data-entity-1="part10" data-entity-2="part2" id="msg13"><polygon fill="#181818" points="251.3459,571.5547,241.3459,575.5547,251.3459,579.5547,247.3459,575.5547" style="stroke:#181818;stroke-width:1;"/><line style="stroke:#181818;stroke-width:1;" x1="245.3459" x2="1327.4932" y1="575.5547" y2="575.5547"/></g><line style="stroke:#000000;stroke-width:1;stroke-dasharray:2,2;" x1="164.24" x2="1396.0303" y1="584.5547" y2="584.5547"/><text fill="#000000" font-family="sans-serif" font-size="11" font-weight="bold" lengthAdjust="spacing" textLength="161.3047" x="169.24" y="594.7651">[Erreur cr&#233;ation livraison]</text><g class="message" data-entity-1="part8" data-entity-2="part10" id="msg14"><polygon fill="#181818" points="1316.4932,615.4922,1326.4932,619.4922,1316.4932,623.4922,1320.4932,619.4922" style="stroke:#181818;stroke-width:1;"/><line style="stroke:#181818;stroke-width:1;" x1="1115.3818" x2="1322.4932" y1="619.4922" y2="619.4922"/><text fill="#000000" font-family="sans-serif" font-size="13" lengthAdjust="spacing" textLength="148.167" x="1122.3818" y="614.4263">DeliveryCreationFailed</text></g><g class="message" data-entity-1="part10" data-entity-2="part2" id="msg15"><polygon fill="#181818" points="251.3459,629.4922,241.3459,633.4922,251.3459,637.4922,247.3459,633.4922" style="stroke:#181818;stroke-width:1;"/><line style="stroke:#181818;stroke-width:1;" x1="245.3459" x2="1327.4932" y1="633.4922" y2="633.4922"/></g><g class="message" data-entity-1="part2" data-entity-2="part11" id="msg16"><polygon fill="#181818" points="1437.4727,665.625,1447.4727,669.625,1437.4727,673.625,1441.4727,669.625" style="stroke:#181818;stroke-width:1;"/><line style="stroke:#181818;stroke-width:1;" x1="240.3459" x2="1443.4727" y1="669.625" y2="669.625"/><text fill="#000000" font-family="sans-serif" font-size="13" lengthAdjust="spacing" textLength="105.6948" x="247.3459" y="664.5591">DeliveryCreated</text></g><g class="message" data-entity-1="part11" data-entity-2="part12" id="msg17"><polygon fill="#181818" points="1586.2549,694.7578,1596.2549,698.7578,1586.2549,702.7578,1590.2549,698.7578" style="stroke:#181818;stroke-width:1;"/><line style="stroke:#181818;stroke-width:1;" x1="1449.4727" x2="1592.2549" y1="698.7578" y2="698.7578"/><text fill="#000000" font-family="sans-serif" font-size="13" lengthAdjust="spacing" textLength="124.7822" x="1456.4727" y="693.6919">initializeWorkflow()</text></g><path d="M1526.8315,713.7578 L1596.2827,713.7578 L1596.2827,720.8906 L1586.2827,730.8906 L1526.8315,730.8906 L1526.8315,713.7578" fill="#EEEEEE" style="stroke:#000000;stroke-width:1.5;"/><rect fill="none" height="46.2656" style="stroke:#000000;stroke-width:1.5;" width="295.3467" x="1526.8315" y="713.7578"/><text fill="#000000" font-family="sans-serif" font-size="13" font-weight="bold" lengthAdjust="spacing" textLength="24.4512" x="1541.8315" y="726.8247">opt</text><text fill="#000000" font-family="sans-serif" font-size="11" font-weight="bold" lengthAdjust="spacing" textLength="205.8955" x="1611.2827" y="725.9683">[V&#233;rification &#233;tat initial autoris&#233;]</text><g class="message" data-entity-1="part12" data-entity-2="part13" id="msg18"><polygon fill="#181818" points="1725.23,748.0234,1735.23,752.0234,1725.23,756.0234,1729.23,752.0234" style="stroke:#181818;stroke-width:1;"/><line style="stroke:#181818;stroke-width:1;" x1="1598.2549" x2="1731.23" y1="752.0234" y2="752.0234"/><text fill="#000000" font-family="sans-serif" font-size="13" lengthAdjust="spacing" textLength="51.6953" x="1605.2549" y="746.9575">create()</text></g><?plantuml-src fLLBSjim3Dtp51nlcYnwWKxgHPna9ZFnrBKxxQORMe9JD0pfWfHRzqO-XozMc1Afh-rugfKal8S7F0YKHwz1JcY_KnwjaK-u8OMExuHGcRSaH_VpcLnidOVNaLHEygCGI_k70nimNjuMJbxDrNA9VlhvUYGaNxyAA42Efk2SUWPvI_O5AB3BMm4cbvn32F5EVeoNdAhr6ispd2xgbwNK53Eo3cY36KHOARMqXSaLRMCvJyYL6g3lvkO6ZGTQgGp6uo1U4ICay3DhF5dD4cLmKOeSw5L80xNv5IJGMH8zYq-KiGOpfUKdoalrCbHHKpo41okV5KkDxiV9qXFcY8Dte743dFECXMdCbviO9OPTZD59ycxGoJwivMOgh-TZ95xkO6IUi_2RfPULjh_FMHXnbpiOcSCEnkYf3x63QNcNwdyqpYjJPcXv614Hq322-v-HpNXlUQkvRN5O_lVZQctbX_BhdeFAjm-MqZ24g00CxIpPKKuNLrEhhfZfIHctilJwnQO5khhcaqbxUMUDsUyW74XoepJcu88HdIoSjxryd3SZK1uuqp2-kspCQAUO17xUfDVWP9S0xQ2k4ytfAWTKgrTp-0dPM_HCtXf5TrMFzj43DiZrYYRZOYYEelvfb1s6EWVuZQpT8Pn6Dpr9oCOC-hZE4Ew9e22MZFyv7Kl-7tLEzA1GlwM8pcIwHy10Npr8WrPl21hqoAR_XHWx3CMklVowtn6kUDIXt_tEAn_HKXNyPqUttuN2kraRGl68Q8wBU_a7?></g></svg>