<svg xmlns="http://www.w3.org/2000/svg" xmlns:xlink="http://www.w3.org/1999/xlink" contentStyleType="text/css" data-diagram-type="DESCRIPTION" height="989px" preserveAspectRatio="none" style="width:692px;height:989px;background:#FFFFFF;" version="1.1" viewBox="0 0 692 989" width="692px" zoomAndPan="magnify"><?plantuml 1.2026.6?><defs/><g><g class="title" data-source-line="14"><text fill="#000000" font-family="sans-serif" font-size="14" font-weight="700" lengthAdjust="spacing" textLength="352.3311" x="166.7915" y="22.9951">Diagramme de cas d'utilisation &#8212; ASM Track</text></g><!--cluster ASM Track--><g class="cluster" data-qualified-name="ASM Track" data-source-line="22" id="ent0006"><rect fill="none" height="931" rx="2.5" ry="2.5" style="stroke:#181818;stroke-width:1;" width="248.86" x="157.6" y="44.2969"/><text fill="#000000" font-family="sans-serif" font-size="14" font-weight="700" lengthAdjust="spacing" textLength="83.2344" x="240.4128" y="59.292">ASM Track</text></g><!--entity UC1--><g class="entity" data-qualified-name="ASM Track.UC1" data-source-line="23" id="ent0007"><ellipse cx="282.0262" cy="100.2981" fill="#E3F2FD" rx="92.6562" ry="20.9312" style="stroke:#1565C0;stroke-width:0.5;"/><text fill="#000000" font-family="sans-serif" font-size="14" lengthAdjust="spacing" textLength="159.7285" x="202.1619" y="104.9465">Passer une commande</text></g><!--entity UC2--><g class="entity" data-qualified-name="ASM Track.UC2" data-source-line="24" id="ent0008"><ellipse cx="282.0346" cy="173.2978" fill="#E3F2FD" rx="71.1546" ry="16.6309" style="stroke:#1565C0;stroke-width:0.5;"/><text fill="#000000" font-family="sans-serif" font-size="14" lengthAdjust="spacing" textLength="109.2725" x="227.3983" y="177.9462">Suivre son colis</text></g><!--entity UC3--><g class="entity" data-qualified-name="ASM Track.UC3" data-source-line="25" id="ent0009"><ellipse cx="282.0293" cy="244.2967" fill="#E3F2FD" rx="86.8993" ry="19.7799" style="stroke:#1565C0;stroke-width:0.5;"/><text fill="#000000" font-family="sans-serif" font-size="14" lengthAdjust="spacing" textLength="146.6855" x="208.6865" y="248.9452">Consulter sa tourn&#233;e</text></g><!--entity UC4--><g class="entity" data-qualified-name="ASM Track.UC4" data-source-line="26" id="ent0010"><ellipse cx="282.0347" cy="319.2938" fill="#E3F2FD" rx="88.6347" ry="20.1269" style="stroke:#1565C0;stroke-width:0.5;"/><text fill="#000000" font-family="sans-serif" font-size="14" lengthAdjust="spacing" textLength="150.6436" x="206.7129" y="323.9422">R&#233;aliser une livraison</text></g><!--entity UC5--><g class="entity" data-qualified-name="ASM Track.UC5" data-source-line="27" id="ent0011"><ellipse cx="282.0325" cy="392.3014" fill="#E3F2FD" rx="77.8225" ry="17.9645" style="stroke:#1565C0;stroke-width:0.5;"/><text fill="#000000" font-family="sans-serif" font-size="14" lengthAdjust="spacing" textLength="125.5146" x="219.2752" y="396.9498">Signaler un &#233;chec</text></g><!--entity UC6--><g class="entity" data-qualified-name="ASM Track.UC6" data-source-line="28" id="ent0012"><ellipse cx="282.0284" cy="466.2986" fill="#E3F2FD" rx="92.8084" ry="20.9617" style="stroke:#1565C0;stroke-width:0.5;"/><text fill="#000000" font-family="sans-serif" font-size="14" lengthAdjust="spacing" textLength="160.0703" x="201.9933" y="470.947">Encaisser un paiement</text></g><!--entity UC7--><g class="entity" data-qualified-name="ASM Track.UC7" data-source-line="29" id="ent0013"><ellipse cx="282.0349" cy="542.2999" fill="#E3F2FD" rx="87.3149" ry="19.863" style="stroke:#1565C0;stroke-width:0.5;"/><text fill="#000000" font-family="sans-serif" font-size="14" lengthAdjust="spacing" textLength="147.6357" x="208.217" y="546.9483">Planifier les tourn&#233;es</text></g><!--entity UC8--><g class="entity" data-qualified-name="ASM Track.UC8" data-source-line="30" id="ent0014"><ellipse cx="282.0296" cy="619.2968" fill="#E3F2FD" rx="97.1996" ry="21.8399" style="stroke:#1565C0;stroke-width:0.5;"/><text fill="#000000" font-family="sans-serif" font-size="14" lengthAdjust="spacing" textLength="169.8662" x="197.0965" y="623.9452">Superviser les livraisons</text></g><!--entity UC9--><g class="entity" data-qualified-name="ASM Track.UC9" data-source-line="31" id="ent0015"><ellipse cx="282.0337" cy="697.3016" fill="#E3F2FD" rx="92.1237" ry="20.8247" style="stroke:#1565C0;stroke-width:0.5;"/><text fill="#000000" font-family="sans-serif" font-size="14" lengthAdjust="spacing" textLength="158.5322" x="202.7676" y="701.9501">R&#233;soudre les incidents</text></g><!--entity UC10--><g class="entity" data-qualified-name="ASM Track.UC10" data-source-line="32" id="ent0016"><ellipse cx="282.0346" cy="776.2958" fill="#E3F2FD" rx="104.3446" ry="23.2689" style="stroke:#1565C0;stroke-width:0.5;"/><text fill="#000000" font-family="sans-serif" font-size="14" lengthAdjust="spacing" textLength="185.5889" x="189.2402" y="780.9442">G&#233;rer les comptes et r&#244;les</text></g><!--entity UC11--><g class="entity" data-qualified-name="ASM Track.UC11" data-source-line="33" id="ent0017"><ellipse cx="282.0282" cy="858.2925" fill="#E3F2FD" rx="108.4282" ry="24.0856" style="stroke:#1565C0;stroke-width:0.5;"/><text fill="#000000" font-family="sans-serif" font-size="14" lengthAdjust="spacing" textLength="194.4756" x="184.7904" y="862.941">Configurer l'int&#233;gration ERP</text></g><!--entity UC12--><g class="entity" data-qualified-name="ASM Track.UC12" data-source-line="34" id="ent0018"><ellipse cx="282.034" cy="938.3017" fill="#E3F2FD" rx="90.574" ry="20.5148" style="stroke:#1565C0;stroke-width:0.5;"/><text fill="#000000" font-family="sans-serif" font-size="14" lengthAdjust="spacing" textLength="155.0391" x="204.5145" y="942.9501">Consulter les rapports</text></g><!--entity C--><g class="entity" data-qualified-name="C" data-source-line="16" id="ent0001"><ellipse cx="58.3" cy="115.1469" fill="#ECEFF1" rx="16" ry="16" style="stroke:#546E7A;stroke-width:0.5;"/><path d="M58.3,135.1469 C62.3,135.1469 65.3,135.1469 69.3,131.1469 C77.3,131.1469 85.3,139.1469 85.3,147.1469 L85.3,151.1469 C85.3,155.1469 81.3,159.1469 77.3,159.1469 L39.3,159.1469 C35.3,159.1469 31.3,155.1469 31.3,151.1469 L31.3,147.1469 C31.3,139.1469 39.3,131.1469 47.3,131.1469 C51.3,135.1469 54.3,135.1469 58.3,135.1469" fill="#ECEFF1" style="stroke:#546E7A;stroke-width:0.5;"/><text fill="#000000" font-family="sans-serif" font-size="14" lengthAdjust="spacing" textLength="40.5303" x="38.0349" y="172.642">Client</text></g><!--entity L--><g class="entity" data-qualified-name="L" data-source-line="17" id="ent0002"><ellipse cx="58.3" cy="334.1469" fill="#ECEFF1" rx="16" ry="16" style="stroke:#546E7A;stroke-width:0.5;"/><path d="M58.3,354.1469 C62.3,354.1469 65.3,354.1469 69.3,350.1469 C77.3,350.1469 85.3,358.1469 85.3,366.1469 L85.3,370.1469 C85.3,374.1469 81.3,378.1469 77.3,378.1469 L39.3,378.1469 C35.3,378.1469 31.3,374.1469 31.3,370.1469 L31.3,366.1469 C31.3,358.1469 39.3,350.1469 47.3,350.1469 C51.3,354.1469 54.3,354.1469 58.3,354.1469" fill="#ECEFF1" style="stroke:#546E7A;stroke-width:0.5;"/><text fill="#000000" font-family="sans-serif" font-size="14" lengthAdjust="spacing" textLength="48.9727" x="33.8137" y="391.642">Livreur</text></g><!--entity D--><g class="entity" data-qualified-name="D" data-source-line="18" id="ent0003"><ellipse cx="58.3057" cy="597.1469" fill="#ECEFF1" rx="16" ry="16" style="stroke:#546E7A;stroke-width:0.5;"/><path d="M58.3057,617.1469 C62.3057,617.1469 65.3057,617.1469 69.3057,613.1469 C77.3057,613.1469 85.3057,621.1469 85.3057,629.1469 L85.3057,633.1469 C85.3057,637.1469 81.3057,641.1469 77.3057,641.1469 L39.3057,641.1469 C35.3057,641.1469 31.3057,637.1469 31.3057,633.1469 L31.3057,629.1469 C31.3057,621.1469 39.3057,613.1469 47.3057,613.1469 C51.3057,617.1469 54.3057,617.1469 58.3057,617.1469" fill="#ECEFF1" style="stroke:#546E7A;stroke-width:0.5;"/><text fill="#000000" font-family="sans-serif" font-size="14" lengthAdjust="spacing" textLength="84.7314" x="15.94" y="654.642">Dispatcheur</text></g><!--entity A--><g class="entity" data-qualified-name="A" data-source-line="19" id="ent0004"><ellipse cx="58.3018" cy="836.1469" fill="#ECEFF1" rx="16" ry="16" style="stroke:#546E7A;stroke-width:0.5;"/><path d="M58.3018,856.1469 C62.3018,856.1469 65.3018,856.1469 69.3018,852.1469 C77.3018,852.1469 85.3018,860.1469 85.3018,868.1469 L85.3018,872.1469 C85.3018,876.1469 81.3018,880.1469 77.3018,880.1469 L39.3018,880.1469 C35.3018,880.1469 31.3018,876.1469 31.3018,872.1469 L31.3018,868.1469 C31.3018,860.1469 39.3018,852.1469 47.3018,852.1469 C51.3018,856.1469 54.3018,856.1469 58.3018,856.1469" fill="#ECEFF1" style="stroke:#546E7A;stroke-width:0.5;"/><text fill="#000000" font-family="sans-serif" font-size="14" lengthAdjust="spacing" textLength="104.6035" x="6" y="893.642">Administrateur</text></g><!--entity E--><g class="entity" data-qualified-name="E" data-source-line="20" id="ent0005"><ellipse cx="617.1871" cy="159.9969" fill="#ECEFF1" rx="16" ry="16" style="stroke:#546E7A;stroke-width:0.5;"/><path d="M617.1871,179.9969 C621.1871,179.9969 624.1871,179.9969 628.1871,175.9969 C636.1871,175.9969 644.1871,183.9969 644.1871,191.9969 L644.1871,195.9969 C644.1871,199.9969 640.1871,203.9969 636.1871,203.9969 L598.1871,203.9969 C594.1871,203.9969 590.1871,199.9969 590.1871,195.9969 L590.1871,191.9969 C590.1871,183.9969 598.1871,175.9969 606.1871,175.9969 C610.1871,179.9969 613.1871,179.9969 617.1871,179.9969" fill="#ECEFF1" style="stroke:#546E7A;stroke-width:0.5;"/><text fill="#000000" font-family="sans-serif" font-size="14" lengthAdjust="spacing" textLength="27.0156" x="556.46" y="217.492">ERP</text><text fill="#000000" font-family="sans-serif" font-size="14" lengthAdjust="spacing" textLength="121.4541" x="556.46" y="233.7889">(Odoo / ERPNext)</text></g><!--link C to UC1--><g class="link" data-entity-1="ent0001" data-entity-2="ent0007" data-link-type="dependency" data-source-line="37" id="lnk19"><path d="M86.05,132.8369 C115.76,127.8769 160.108,120.4689 201.688,113.5389" fill="none" id="C-to-UC1" style="stroke:#181818;stroke-width:1;"/><polygon fill="#181818" points="206.62,112.7169,197.0849,110.2509,201.688,113.5389,198.4001,118.142,206.62,112.7169" style="stroke:#181818;stroke-width:1;stroke-linejoin:miter;stroke-miterlimit:10;"/></g><!--link C to UC2--><g class="link" data-entity-1="ent0001" data-entity-2="ent0008" data-link-type="dependency" data-source-line="38" id="lnk20"><path d="M86.05,141.6369 C119.68,147.0969 173.4346,155.8257 217.6646,163.0057" fill="none" id="C-to-UC2" style="stroke:#181818;stroke-width:1;"/><polygon fill="#181818" points="222.6,163.8069,214.3572,158.4164,217.6646,163.0057,213.0753,166.3131,222.6,163.8069" style="stroke:#181818;stroke-width:1;stroke-linejoin:miter;stroke-miterlimit:10;"/></g><!--link L to UC3--><g class="link" data-entity-1="ent0002" data-entity-2="ent0009" data-link-type="dependency" data-source-line="40" id="lnk21"><path d="M85.96,328.9969 C102.88,313.0669 125.97,293.7169 149.6,281.2969 C169.75,270.7169 188.4354,264.1423 209.9654,258.4623" fill="none" id="L-to-UC3" style="stroke:#181818;stroke-width:1;"/><polygon fill="#181818" points="214.8,257.1869,205.0774,255.615,209.9654,258.4623,207.1181,263.3504,214.8,257.1869" style="stroke:#181818;stroke-width:1;stroke-linejoin:miter;stroke-miterlimit:10;"/></g><!--link L to UC4--><g class="link" data-entity-1="ent0002" data-entity-2="ent0010" data-link-type="dependency" data-source-line="41" id="lnk22"><path d="M86.05,351.8369 C116.46,346.7569 162.4183,339.0904 204.5783,332.0504" fill="none" id="L-to-UC4" style="stroke:#181818;stroke-width:1;"/><polygon fill="#181818" points="209.51,331.2269,199.9741,328.7638,204.5783,332.0504,201.2917,336.6546,209.51,331.2269" style="stroke:#181818;stroke-width:1;stroke-linejoin:miter;stroke-miterlimit:10;"/></g><!--link L to UC5--><g class="link" data-entity-1="ent0002" data-entity-2="ent0011" data-link-type="dependency" data-source-line="42" id="lnk23"><path d="M86.05,360.6369 C118.41,365.8969 169.0446,374.1158 212.6046,381.1858" fill="none" id="L-to-UC5" style="stroke:#181818;stroke-width:1;"/><polygon fill="#181818" points="217.54,381.9869,209.2971,376.5967,212.6046,381.1858,208.0154,384.4933,217.54,381.9869" style="stroke:#181818;stroke-width:1;stroke-linejoin:miter;stroke-miterlimit:10;"/></g><!--link L to UC6--><g class="link" data-entity-1="ent0002" data-entity-2="ent0012" data-link-type="dependency" data-source-line="43" id="lnk24"><path d="M86.27,381.9669 C103.3,396.9869 126.4,415.2969 149.6,427.2969 C169.58,437.6269 187.9089,444.2855 209.1489,450.2955" fill="none" id="L-to-UC6" style="stroke:#181818;stroke-width:1;"/><polygon fill="#181818" points="213.96,451.6569,206.3891,445.3576,209.1489,450.2955,204.2109,453.0554,213.96,451.6569" style="stroke:#181818;stroke-width:1;stroke-linejoin:miter;stroke-miterlimit:10;"/></g><!--link D to UC7--><g class="link" data-entity-1="ent0003" data-entity-2="ent0013" data-link-type="dependency" data-source-line="45" id="lnk25"><path d="M101.13,599.9269 C116.24,593.2769 133.53,586.0669 149.6,580.2969 C173.41,571.7569 195.3434,565.0785 218.4634,558.6385" fill="none" id="D-to-UC7" style="stroke:#181818;stroke-width:1;"/><polygon fill="#181818" points="223.28,557.2969,213.5367,555.8586,218.4634,558.6385,215.6834,563.5652,223.28,557.2969" style="stroke:#181818;stroke-width:1;stroke-linejoin:miter;stroke-miterlimit:10;"/></g><!--link D to UC8--><g class="link" data-entity-1="ent0003" data-entity-2="ent0014" data-link-type="dependency" data-source-line="46" id="lnk26"><path d="M101.01,619.2969 C124.72,619.2969 150.45,619.2969 179.8,619.2969" fill="none" id="D-to-UC8" style="stroke:#181818;stroke-width:1;"/><polygon fill="#181818" points="184.8,619.2969,175.8,615.2969,179.8,619.2969,175.8,623.2969,184.8,619.2969" style="stroke:#181818;stroke-width:1;stroke-linejoin:miter;stroke-miterlimit:10;"/></g><!--link D to UC9--><g class="link" data-entity-1="ent0003" data-entity-2="ent0015" data-link-type="dependency" data-source-line="47" id="lnk27"><path d="M101.15,638.6069 C116.26,645.2469 133.55,652.4769 149.6,658.2969 C172.76,666.6969 193.8751,673.3037 216.5251,679.8237" fill="none" id="D-to-UC9" style="stroke:#181818;stroke-width:1;"/><polygon fill="#181818" points="221.33,681.2069,213.7877,674.8733,216.5251,679.8237,211.5747,682.5612,221.33,681.2069" style="stroke:#181818;stroke-width:1;stroke-linejoin:miter;stroke-miterlimit:10;"/></g><!--link A to UC10--><g class="link" data-entity-1="ent0004" data-entity-2="ent0016" data-link-type="dependency" data-source-line="49" id="lnk28"><path d="M110.82,832.8269 C123.36,827.0469 136.85,821.1769 149.6,816.2969 C170.54,808.2869 189.04,802.2007 210.12,795.8907" fill="none" id="A-to-UC10" style="stroke:#181818;stroke-width:1;"/><polygon fill="#181818" points="214.91,794.4569,205.1409,793.2057,210.12,795.8907,207.435,800.8698,214.91,794.4569" style="stroke:#181818;stroke-width:1;stroke-linejoin:miter;stroke-miterlimit:10;"/></g><!--link A to UC11--><g class="link" data-entity-1="ent0004" data-entity-2="ent0017" data-link-type="dependency" data-source-line="50" id="lnk29"><path d="M111.01,858.2969 C129.69,858.2969 146.54,858.2969 168.24,858.2969" fill="none" id="A-to-UC11" style="stroke:#181818;stroke-width:1;"/><polygon fill="#181818" points="173.24,858.2969,164.24,854.2969,168.24,858.2969,164.24,862.2969,173.24,858.2969" style="stroke:#181818;stroke-width:1;stroke-linejoin:miter;stroke-miterlimit:10;"/></g><!--link A to UC12--><g class="link" data-entity-1="ent0004" data-entity-2="ent0018" data-link-type="dependency" data-source-line="51" id="lnk30"><path d="M110.77,883.8969 C123.32,889.6669 136.81,895.5069 149.6,900.2969 C172.4,908.8369 193.1938,915.2838 215.7138,921.5638" fill="none" id="A-to-UC12" style="stroke:#181818;stroke-width:1;"/><polygon fill="#181818" points="220.53,922.9069,212.9352,916.6364,215.7138,921.5638,210.7863,924.3423,220.53,922.9069" style="stroke:#181818;stroke-width:1;stroke-linejoin:miter;stroke-miterlimit:10;"/></g><!--link UC1 to E--><g class="link" data-entity-1="ent0007" data-entity-2="ent0005" data-link-type="dependency" data-source-line="53" id="lnk31"><path d="M342.98,116.4869 C403.3,132.7869 490.983,156.4731 551.333,172.7731" fill="none" id="UC1-to-E" style="stroke:#181818;stroke-width:1;stroke-dasharray:7,7;"/><polygon fill="#181818" points="556.16,174.0769,548.5143,167.8685,551.333,172.7731,546.4283,175.5918,556.16,174.0769" style="stroke:#181818;stroke-width:1;stroke-linejoin:miter;stroke-miterlimit:10;"/><text fill="#000000" font-family="sans-serif" font-size="13" lengthAdjust="spacing" textLength="42.9229" x="453.46" y="135.9738">import</text></g><!--link UC4 to E--><g class="link" data-entity-1="ent0010" data-entity-2="ent0005" data-link-type="dependency" data-source-line="54" id="lnk32"><path d="M342.17,304.1269 C364.99,297.7769 391.17,289.8669 414.46,281.2969 C463.14,263.3869 512.0607,241.2171 551.7007,222.2271" fill="none" id="UC4-to-E" style="stroke:#181818;stroke-width:1;stroke-dasharray:7,7;"/><polygon fill="#181818" points="556.21,220.0669,546.3652,220.3479,551.7007,222.2271,549.8215,227.5627,556.21,220.0669" style="stroke:#181818;stroke-width:1;stroke-linejoin:miter;stroke-miterlimit:10;"/><text fill="#000000" font-family="sans-serif" font-size="13" lengthAdjust="spacing" textLength="102.8828" x="423.46" y="230.6538">synchronisation</text></g><?plantuml-src TLHBRjim4Dtp50DtaNQHrF8twIA0AylTk6qGDxjk296M1w58WQII1aM17AANyButq4rwaevaKP7TTYCzppo-UJCSMScj1s_0OhRp8D3ArAFHpDsZBhZbERWT5-OHTGPRhfpiPNAZJRgp9fT_fGgUtlDCRloJab1hSfsfFe6dtjX3cZzAHngzPEbaofs4xmpWFIbbrfHQn4OP2w-IyMgqMjOPOuMqRJIQpgRnaFquBV4VZJXPhQ9JZUbabimNfE7Hawybyenqg3iXWVo0E2izAdIydX3yVlu9Yyr7-699dR53jK6iK6e_0AB78RR61ojBsmJN8RX4Lt2Vxa9Y6H8BaQD6vott8RS8kUJsvgj-_LaO0s-1VdoIt_oRXf8mresPD8AlGTD_cEVWXZidBPIQ6Z9vphMGpUcxEEhJDcNj61nrcHfgkEMC-fpOQ5SgJsgEqmALLbVx83Rk4s-hFIUDjgmYPOwat58dHtKnqrmrJAZsD9kqPKtxh4Idf70Gf4L3cOU9tyMpesuLrxX58YhfEe-Xc_bnnuMq3utBcjkv3EJBauwSAGLDgEQYJb6GWq2zwbC_L7lRQjB02qzlwS5MlrJd8ngUZ7MBMTaSEaFjgptjOBDlTDtXHFJlYwYhM5uKndPceX6jCulX_FowkUI0HeojMpZkqAH3qmxD65ksSDwXomvTCRO8uiCN6Br0gaHFkBYuXWJU0UQrFGfDkf1xqlM_Y6u_h3y0?></g></svg>